<?xml version="1.0" encoding="UTF-8" standalone="no"?>
<!-- Created with Inkscape (http://www.inkscape.org/) -->

<svg
   xmlns:osb="http://www.openswatchbook.org/uri/2009/osb"
   xmlns:dc="http://purl.org/dc/elements/1.1/"
   xmlns:cc="http://creativecommons.org/ns#"
   xmlns:rdf="http://www.w3.org/1999/02/22-rdf-syntax-ns#"
   xmlns:svg="http://www.w3.org/2000/svg"
   xmlns="http://www.w3.org/2000/svg"
   xmlns:sodipodi="http://sodipodi.sourceforge.net/DTD/sodipodi-0.dtd"
   xmlns:inkscape="http://www.inkscape.org/namespaces/inkscape"
   sodipodi:docname="J_u.svg"
   inkscape:version="0.91 r13725"
   version="1.1"
   id="svg7116"
   viewBox="0 0 744.09448819 1052.3622047"
   height="297mm"
   width="210mm">
  <sodipodi:namedview
     showgrid="false"
     inkscape:current-layer="layer1"
     inkscape:document-units="px"
     inkscape:cy="520"
     inkscape:cx="375"
     inkscape:zoom="0.35"
     inkscape:pageshadow="2"
     inkscape:pageopacity="0.0"
     borderopacity="1.0"
     bordercolor="#666666"
     pagecolor="#ffffff"
     id="base" />
  <defs
     id="defs7118">
    <linearGradient
       osb:paint="gradient"
       id="linearGradient13832">
      <stop
         id="stop13834"
         offset="0"
         style="stop-color:#000000;stop-opacity:1;" />
      <stop
         id="stop13836"
         offset="1"
         style="stop-color:#000000;stop-opacity:0;" />
    </linearGradient>
    <marker
       inkscape:isstock="true"
       style="overflow:visible"
       id="EmptyDiamondMstart"
       refX="0.0"
       refY="0.0"
       orient="auto"
       inkscape:stockid="EmptyDiamondMstart">
      <path
         transform="scale(0.4) translate(6.5,0)"
         style="fill-rule:evenodd;fill:#FFFFFF;stroke:#000000;stroke-width:1.0pt"
         d="M 0,-7.0710768 L -7.0710894,0 L 0,7.0710589 L 7.0710462,0 L 0,-7.0710768 z "
         id="path4266" />
    </marker>
    <marker
       inkscape:isstock="true"
       style="overflow:visible"
       id="EmptyTriangleInL"
       refX="0.0"
       refY="0.0"
       orient="auto"
       inkscape:stockid="EmptyTriangleInL">
      <path
         transform="scale(-0.8) translate(-6,0)"
         style="fill-rule:evenodd;fill:#ffffff;stroke:#000000;stroke-width:1pt;stroke-opacity:1"
         d="M 5.77,0.0 L -2.88,5.0 L -2.88,-5.0 L 5.77,0.0 z "
         id="path4299" />
    </marker>
    <marker
       inkscape:isstock="true"
       style="overflow:visible;"
       id="Arrow2Mend"
       refX="0.0"
       refY="0.0"
       orient="auto"
       inkscape:stockid="Arrow2Mend">
      <path
         transform="scale(0.6) rotate(180) translate(0,0)"
         d="M 8.7185878,4.0337352 L -2.2072895,0.016013256 L 8.7185884,-4.0017078 C 6.9730900,-1.6296469 6.9831476,1.6157441 8.7185878,4.0337352 z "
         style="fill-rule:evenodd;stroke-width:0.625;stroke-linejoin:round;stroke:#000000;stroke-opacity:1;fill:#000000;fill-opacity:1"
         id="path4175" />
    </marker>
    <marker
       inkscape:isstock="true"
       style="overflow:visible"
       id="Arrow1Lstart"
       refX="0.0"
       refY="0.0"
       orient="auto"
       inkscape:stockid="Arrow1Lstart">
      <path
         transform="scale(0.8) translate(12.5,0)"
         style="fill-rule:evenodd;stroke:#000000;stroke-width:1pt;stroke-opacity:1;fill:#000000;fill-opacity:1"
         d="M 0.0,0.0 L 5.0,-5.0 L -12.5,0.0 L 5.0,5.0 L 0.0,0.0 z "
         id="path4148" />
    </marker>
    <marker
       inkscape:isstock="true"
       style="overflow:visible;"
       id="marker10276"
       refX="0.0"
       refY="0.0"
       orient="auto"
       inkscape:stockid="Arrow1Mend">
      <path
         transform="scale(0.4) rotate(180) translate(10,0)"
         style="fill-rule:evenodd;stroke:#000000;stroke-width:1pt;stroke-opacity:1;fill:#000000;fill-opacity:1"
         d="M 0.0,0.0 L 5.0,-5.0 L -12.5,0.0 L 5.0,5.0 L 0.0,0.0 z "
         id="path10278" />
    </marker>
    <marker
       inkscape:isstock="true"
       style="overflow:visible"
       id="marker10182"
       refX="0"
       refY="0"
       orient="auto"
       inkscape:stockid="Arrow1Mend">
      <path
         inkscape:connector-curvature="0"
         transform="matrix(-0.4,0,0,-0.4,-4,0)"
         style="fill:#000000;fill-opacity:1;fill-rule:evenodd;stroke:#000000;stroke-width:1pt;stroke-opacity:1"
         d="M 0,0 5,-5 -12.5,0 5,5 0,0 Z"
         id="path10184" />
    </marker>
    <marker
       inkscape:isstock="true"
       style="overflow:visible;"
       id="marker9428"
       refX="0.0"
       refY="0.0"
       orient="auto"
       inkscape:stockid="Arrow1Mend">
      <path
         transform="scale(0.4) rotate(180) translate(10,0)"
         style="fill-rule:evenodd;stroke:#000000;stroke-width:1pt;stroke-opacity:1;fill:#000000;fill-opacity:1"
         d="M 0.0,0.0 L 5.0,-5.0 L -12.5,0.0 L 5.0,5.0 L 0.0,0.0 z "
         id="path9430" />
    </marker>
    <marker
       inkscape:isstock="true"
       style="overflow:visible;"
       id="marker9322"
       refX="0.0"
       refY="0.0"
       orient="auto"
       inkscape:stockid="Arrow1Mend">
      <path
         transform="scale(0.4) rotate(180) translate(10,0)"
         style="fill-rule:evenodd;stroke:#000000;stroke-width:1pt;stroke-opacity:1;fill:#000000;fill-opacity:1"
         d="M 0.0,0.0 L 5.0,-5.0 L -12.5,0.0 L 5.0,5.0 L 0.0,0.0 z "
         id="path9324" />
    </marker>
    <marker
       inkscape:collect="always"
       inkscape:stockid="Arrow1Mend"
       orient="auto"
       refY="0.0"
       refX="0.0"
       id="marker9228"
       style="overflow:visible;"
       inkscape:isstock="true">
      <path
         id="path9230"
         d="M 0.0,0.0 L 5.0,-5.0 L -12.5,0.0 L 5.0,5.0 L 0.0,0.0 z "
         style="fill-rule:evenodd;stroke:#000000;stroke-width:1pt;stroke-opacity:1;fill:#000000;fill-opacity:1"
         transform="scale(0.4) rotate(180) translate(10,0)" />
    </marker>
    <marker
       inkscape:collect="always"
       inkscape:stockid="Arrow1Mend"
       orient="auto"
       refY="0.0"
       refX="0.0"
       id="marker8768"
       style="overflow:visible;"
       inkscape:isstock="true">
      <path
         id="path8770"
         d="M 0.0,0.0 L 5.0,-5.0 L -12.5,0.0 L 5.0,5.0 L 0.0,0.0 z "
         style="fill-rule:evenodd;stroke:#000000;stroke-width:1pt;stroke-opacity:1;fill:#000000;fill-opacity:1"
         transform="scale(0.4) rotate(180) translate(10,0)" />
    </marker>
    <marker
       inkscape:collect="always"
       inkscape:isstock="true"
       style="overflow:visible;"
       id="Arrow1Mend"
       refX="0.0"
       refY="0.0"
       orient="auto"
       inkscape:stockid="Arrow1Mend">
      <path
         transform="scale(0.4) rotate(180) translate(10,0)"
         style="fill-rule:evenodd;stroke:#000000;stroke-width:1pt;stroke-opacity:1;fill:#000000;fill-opacity:1"
         d="M 0.0,0.0 L 5.0,-5.0 L -12.5,0.0 L 5.0,5.0 L 0.0,0.0 z "
         id="path4157" />
    </marker>
    <marker
       inkscape:collect="always"
       inkscape:stockid="Arrow1Mend"
       orient="auto"
       refY="0"
       refX="0"
       id="marker8768-1"
       style="overflow:visible"
       inkscape:isstock="true">
      <path
         id="path8770-6"
         d="M 0,0 5,-5 -12.5,0 5,5 0,0 Z"
         style="fill:#000000;fill-opacity:1;fill-rule:evenodd;stroke:#000000;stroke-width:1pt;stroke-opacity:1"
         transform="matrix(-0.4,0,0,-0.4,-4,0)"
         inkscape:connector-curvature="0" />
    </marker>
  </defs>
  <metadata
     id="metadata7121">
    <rdf:RDF>
      <cc:Work
         rdf:about="">
        <dc:format>image/svg+xml</dc:format>
        <dc:type
           rdf:resource="http://purl.org/dc/dcmitype/StillImage" />
        <dc:title />
      </cc:Work>
    </rdf:RDF>
  </metadata>
  <g
     id="layer1"
     inkscape:groupmode="layer"
     inkscape:label="Layer 1">
    <path
       sodipodi:nodetypes="cc"
       inkscape:connector-curvature="0"
       id="path4142"
       d="m 150.83247,12.134322 0,339.988228"
       style="display:inline;fill:none;fill-rule:evenodd;stroke:#000000;stroke-width:1px;stroke-linecap:butt;stroke-linejoin:miter;stroke-opacity:1" />
    <path
       sodipodi:nodetypes="cc"
       inkscape:connector-curvature="0"
       id="path4424"
       d="m 9.2579749,316.12255 435.3022251,0"
       style="display:inline;fill:none;fill-rule:evenodd;stroke:#000000;stroke-width:0.91821301px;stroke-linecap:butt;stroke-linejoin:miter;stroke-opacity:1" />
    <path
       style="display:inline;fill:none;fill-rule:evenodd;stroke:#000000;stroke-width:1px;stroke-linecap:butt;stroke-linejoin:miter;stroke-opacity:1"
       d="m 150.832,372.0302 4.7e-4,339.98846"
       id="path7917"
       inkscape:connector-curvature="0"
       sodipodi:nodetypes="cc" />
    <path
       style="display:inline;fill:none;fill-rule:evenodd;stroke:#000000;stroke-width:0.91821301px;stroke-linecap:butt;stroke-linejoin:miter;stroke-opacity:1"
       d="M 9.2579749,676.0182 444.5602,676.01866"
       id="path7919"
       inkscape:connector-curvature="0"
       sodipodi:nodetypes="cc" />
    <path
       sodipodi:nodetypes="cc"
       inkscape:connector-curvature="0"
       id="path7925"
       d="m 169.84663,267.92874 71.48052,0"
       style="fill:none;fill-rule:evenodd;stroke:#000000;stroke-width:3;stroke-linecap:butt;stroke-linejoin:miter;stroke-miterlimit:4;stroke-dasharray:none;stroke-opacity:1;marker-end:url(#Arrow1Mend)" />
    <path
       inkscape:transform-center-y="-1.2908278"
       inkscape:transform-center-x="-0.2077936"
       style="fill:none;fill-rule:evenodd;stroke:#000000;stroke-width:3;stroke-linecap:butt;stroke-linejoin:miter;stroke-miterlimit:4;stroke-dasharray:none;stroke-opacity:1;marker-end:url(#marker8768)"
       d="m 226.06081,633.27799 0,-71.48052"
       id="path8766"
       inkscape:connector-curvature="0"
       sodipodi:nodetypes="cc" />
    <path
       style="display:inline;fill:none;fill-rule:evenodd;stroke:#000000;stroke-width:1px;stroke-linecap:butt;stroke-linejoin:miter;stroke-opacity:1"
       d="m 396.85844,-84.281262 0,339.988232"
       id="path9216"
       inkscape:connector-curvature="0"
       sodipodi:nodetypes="cc" />
    <path
       style="display:inline;fill:none;fill-rule:evenodd;stroke:#000000;stroke-width:0.91821301px;stroke-linecap:butt;stroke-linejoin:miter;stroke-opacity:1"
       d="m 255.28395,219.70697 435.30222,0"
       id="path9218"
       inkscape:connector-curvature="0"
       sodipodi:nodetypes="cc" />
    <path
       sodipodi:nodetypes="cc"
       inkscape:connector-curvature="0"
       id="path9220"
       d="m 396.85797,275.61462 4.7e-4,339.98846"
       style="display:inline;fill:none;fill-rule:evenodd;stroke:#000000;stroke-width:1px;stroke-linecap:butt;stroke-linejoin:miter;stroke-opacity:1" />
    <path
       sodipodi:nodetypes="cc"
       inkscape:connector-curvature="0"
       id="path9222"
       d="m 255.28395,579.60262 435.30222,4.6e-4"
       style="display:inline;fill:none;fill-rule:evenodd;stroke:#000000;stroke-width:0.91821301px;stroke-linecap:butt;stroke-linejoin:miter;stroke-opacity:1" />
    <path
       style="fill:none;fill-rule:evenodd;stroke:#000000;stroke-width:3;stroke-linecap:butt;stroke-linejoin:miter;stroke-miterlimit:4;stroke-dasharray:none;stroke-opacity:1;marker-mid:url(#marker8768-1);marker-end:url(#marker9228)"
       d="m 434.09207,167.39908 50.74239,0 20.73813,0"
       id="path9224"
       inkscape:connector-curvature="0"
       sodipodi:nodetypes="ccc" />
    <path
       sodipodi:nodetypes="ccc"
       inkscape:connector-curvature="0"
       id="path9226"
       d="m 470.91133,544.50283 0,-53.59606 0,-19.88408"
       style="fill:none;fill-rule:evenodd;stroke:#000000;stroke-width:3;stroke-linecap:butt;stroke-linejoin:miter;stroke-miterlimit:4;stroke-dasharray:none;stroke-opacity:1;marker-mid:url(#marker10276);marker-end:url(#marker9428)"
       inkscape:transform-center-x="-0.2077936"
       inkscape:transform-center-y="-1.2908278" />
    <path
       style="display:inline;fill:none;fill-rule:evenodd;stroke:#000000;stroke-width:1px;stroke-linecap:butt;stroke-linejoin:miter;stroke-opacity:1"
       d="m 396.85797,679.56267 4.7e-4,339.98843"
       id="path12040"
       inkscape:connector-curvature="0"
       sodipodi:nodetypes="cc" />
    <path
       style="display:inline;fill:none;fill-rule:evenodd;stroke:#000000;stroke-width:0.91821301px;stroke-linecap:butt;stroke-linejoin:miter;stroke-opacity:1"
       d="m 255.28395,983.55067 435.30222,4.6e-4"
       id="path12042"
       inkscape:connector-curvature="0"
       sodipodi:nodetypes="cc" />
    <circle
       r="5.1425948"
       cy="983.58569"
       cx="396.79172"
       id="path12044"
       style="opacity:1;fill:none;fill-opacity:1;stroke:#000000;stroke-width:1;stroke-linecap:butt;stroke-linejoin:round;stroke-miterlimit:4;stroke-dasharray:none;stroke-dashoffset:0;stroke-opacity:1" />
    <circle
       style="opacity:1;fill:none;fill-opacity:1;stroke:#000000;stroke-width:1;stroke-linecap:butt;stroke-linejoin:round;stroke-miterlimit:4;stroke-dasharray:none;stroke-dashoffset:0;stroke-opacity:1"
       id="circle13859"
       cx="396.79172"
       cy="983.58569"
       r="6.5" />
    <circle
       r="2.5"
       cy="983.58569"
       cx="396.79172"
       id="circle13861"
       style="opacity:1;fill:#000000;fill-opacity:1;stroke:#000000;stroke-width:1;stroke-linecap:butt;stroke-linejoin:round;stroke-miterlimit:4;stroke-dasharray:none;stroke-dashoffset:0;stroke-opacity:1" />
    <path
       sodipodi:nodetypes="cc"
       inkscape:connector-curvature="0"
       id="path13863"
       d="m 141.85797,720.56267 4.7e-4,339.98843"
       style="display:inline;fill:none;fill-rule:evenodd;stroke:#000000;stroke-width:1px;stroke-linecap:butt;stroke-linejoin:miter;stroke-opacity:1" />
    <path
       sodipodi:nodetypes="cc"
       inkscape:connector-curvature="0"
       id="path13865"
       d="m 0.28395,1024.5507 435.30222,4e-4"
       style="display:inline;fill:none;fill-rule:evenodd;stroke:#000000;stroke-width:0.91821301px;stroke-linecap:butt;stroke-linejoin:miter;stroke-opacity:1" />
    <circle
       r="6.5"
       cy="1024.5857"
       cx="141.79172"
       id="circle13869"
       style="opacity:1;fill:none;fill-opacity:1;stroke:#000000;stroke-width:1;stroke-linecap:butt;stroke-linejoin:round;stroke-miterlimit:4;stroke-dasharray:none;stroke-dashoffset:0;stroke-opacity:1" />
    <circle
       style="opacity:1;fill:#000000;fill-opacity:1;stroke:#000000;stroke-width:1;stroke-linecap:butt;stroke-linejoin:round;stroke-miterlimit:4;stroke-dasharray:none;stroke-dashoffset:0;stroke-opacity:1"
       id="circle13871"
       cx="141.79172"
       cy="1024.5857"
       r="2.5" />
  </g>
  <g
     transform="translate(105.71429,616.82597)"
     id="g5238">
    <g
       style="font-style:normal;font-variant:normal;font-weight:normal;font-stretch:normal;letter-spacing:normal;word-spacing:normal;text-anchor:start;fill:none;fill-opacity:1;fill-rule:evenodd;stroke:#000000;stroke-linecap:butt;stroke-linejoin:miter;stroke-miterlimit:10.43299961;stroke-dasharray:none;stroke-dashoffset:0;stroke-opacity:1"
       id="g5240"
       transform="matrix(1.0629921,0,0,-1.0629921,-186.02362,789.27165)"
       xml:space="preserve"
       stroke-miterlimit="10.433"
       font-style="normal"
       font-variant="normal"
       font-weight="normal"
       font-stretch="normal"
       font-size-adjust="none"
       letter-spacing="normal"
       word-spacing="normal"><path
         style="fill:#000000;stroke-width:0"
         inkscape:connector-curvature="0"
         d="m 492.29,451.53 -1.29,1.25 c -1.49,-1.71 -3.24,-1.71 -3.79,-1.71 -1,0 -1.84,0.16 -3.98,0.86 -2.3,0.74 -3.23,0.85 -3.94,0.85 -0.89,0 -2.25,-0.21 -3.59,-1.55 -0.55,-0.55 -1.89,-2.05 -2.44,-2.59 l 1.3,-1.24 c 1.5,1.69 3.23,1.69 3.78,1.69 1,0 1.84,-0.16 3.98,-0.84 2.3,-0.75 3.25,-0.85 3.94,-0.85 0.91,0 2.25,0.19 3.6,1.53 0.54,0.55 1.89,2.05 2.43,2.6 z"
         id="path5242" /><path
         style="fill:#000000;stroke-width:0"
         inkscape:connector-curvature="0"
         d="m 482.72,412.78 -11.95,26.36 c -0.55,1.23 -1.09,1.23 -2.2,1.23 l -11.05,0 0,-2.34 5.37,0 0,-28.05 c 0,-1.09 -0.04,-1.14 -1.45,-1.3 -1.19,-0.14 -1.28,-0.14 -2.69,-0.14 l -1.23,0 0,-2.34 c 1.89,0.16 4.72,0.16 6.67,0.16 2.1,0 4.69,0 6.72,-0.16 l 0,2.34 -1.23,0 c -0.91,0 -1.75,0.05 -2.64,0.14 -1.46,0.16 -1.5,0.21 -1.5,1.3 l 0,27.41 0.04,0 13.55,-29.94 c 0.45,-1 1.05,-1.25 1.59,-1.25 1,0 1.41,0.75 1.6,1.2 l 13.9,30.63 0.05,0 0,-29.49 -5.38,0 0,-2.34 c 1.8,0.16 6.43,0.16 8.47,0.16 2.05,0 6.72,0 8.52,-0.16 l 0,2.34 -5.38,0 0,29.49 5.38,0 0,2.34 -11,0 c -1.11,0 -1.66,0 -2.2,-1.23 z"
         id="path5244" /><path
         style="fill:#000000;stroke-width:0"
         inkscape:connector-curvature="0"
         d="m 515.74,401.82 0.17,0.17 0.16,0.17 0.17,0.16 0.17,0.17 0.18,0.17 0.09,0.09 0.1,0.1 0.1,0.09 0.11,0.1 0.11,0.1 0.11,0.11 0.13,0.11 0.13,0.11 0.13,0.12 0.15,0.13 0.15,0.13 0.16,0.14 0.17,0.14 0.17,0.15 0.19,0.16 0.2,0.16 0.21,0.17 0.22,0.18 0.23,0.19 0.25,0.2 0.25,0.21 0.27,0.21 c 0.74,0.6 3.35,2.69 4.36,3.66 2.13,2.09 3.45,3.87 3.45,4.29 0,0.41 -0.45,0.41 -0.59,0.41 -0.31,0 -0.42,-0.06 -0.59,-0.34 -1.08,-1.6 -1.82,-2.13 -2.64,-2.13 -0.43,0 -0.96,0.03 -2,1.05 -1.18,1.19 -1.94,1.42 -2.75,1.42 -2.78,0 -4.68,-3.03 -4.68,-4.06 0,-0.33 0.37,-0.42 0.6,-0.42 0.42,0 0.5,0.09 0.62,0.48 0.53,1.22 2.49,1.3 3.05,1.3 0.8,0 1.7,-0.22 2.19,-0.33 1.92,-0.41 2.16,-0.41 3.03,-0.41 -0.91,-0.95 -1.53,-1.57 -4.84,-4.22 -2.72,-2.15 -3.66,-3.03 -4.32,-3.73 -2.09,-2.05 -3.11,-3.58 -3.11,-3.91 0,-0.4 0.46,-0.4 0.6,-0.4 0.34,0 0.42,0.06 0.59,0.34 0.94,1.33 2.02,2.13 3.21,2.13 0.42,0 0.93,-0.03 1.87,-0.91 1.09,-1.05 1.78,-1.56 2.91,-1.56 3.72,0 6.06,4.22 6.06,5.39 0,0.42 -0.39,0.45 -0.59,0.45 -0.43,0 -0.5,-0.17 -0.63,-0.55 -0.67,-1.75 -2.72,-2.57 -4.44,-2.57 -0.8,0 -1.67,0.17 -2.53,0.37 -1.61,0.35 -1.89,0.35 -2.52,0.35 -0.07,0 -0.59,0 -0.79,-0.04 z"
         id="path5246" /></g>  </g>
  <g
     id="g5397"
     transform="translate(-145.71429,637.14286)">
    <g
       word-spacing="normal"
       letter-spacing="normal"
       font-size-adjust="none"
       font-stretch="normal"
       font-weight="normal"
       font-variant="normal"
       font-style="normal"
       stroke-miterlimit="10.433"
       xml:space="preserve"
       transform="matrix(1.0629921,0,0,-1.0629921,-258.7546,805.43409)"
       id="g5399"
       style="font-style:normal;font-variant:normal;font-weight:normal;font-stretch:normal;letter-spacing:normal;word-spacing:normal;text-anchor:start;fill:none;fill-opacity:1;fill-rule:evenodd;stroke:#000000;stroke-linecap:butt;stroke-linejoin:miter;stroke-miterlimit:10.43299961;stroke-dasharray:none;stroke-dashoffset:0;stroke-opacity:1"><path
         id="path5401"
         d="m 479.81,451.53 -1.29,1.25 c -1.49,-1.71 -3.24,-1.71 -3.79,-1.71 -1,0 -1.84,0.16 -3.98,0.86 -2.3,0.74 -3.23,0.85 -3.94,0.85 -0.89,0 -2.25,-0.21 -3.59,-1.55 -0.55,-0.55 -1.89,-2.05 -2.44,-2.59 l 1.3,-1.24 c 1.5,1.69 3.23,1.69 3.78,1.69 1,0 1.84,-0.16 3.98,-0.84 2.3,-0.75 3.25,-0.85 3.94,-0.85 0.91,0 2.25,0.19 3.6,1.53 0.54,0.55 1.89,2.05 2.43,2.6 z"
         inkscape:connector-curvature="0"
         style="fill:#000000;stroke-width:0" /><path
         id="path5403"
         d="m 477.74,438.03 4.03,0 0,2.34 c -1.73,-0.14 -5.97,-0.14 -7.92,-0.14 -2.64,0 -7.52,0 -9.91,0.14 l 0,-2.34 7.02,0 0,-24.41 c 0,-0.94 0,-6.17 -4.92,-6.17 -0.85,0 -2.5,0.14 -3.99,0.8 l 0,0.04 c 0,0 2.24,0.96 2.24,3.58 0,2.7 -2.15,3.84 -3.79,3.84 -1.84,0 -3.84,-1.25 -3.84,-3.84 0,-3.83 3.94,-6.22 9.63,-6.22 6.67,0 11.45,2.85 11.45,8.02 z"
         inkscape:connector-curvature="0"
         style="fill:#000000;stroke-width:0" /><path
         id="path5405"
         d="m 491.02,401.82 0.17,0.17 0.16,0.17 0.17,0.16 0.17,0.17 0.18,0.17 0.09,0.09 0.1,0.1 0.1,0.09 0.11,0.1 0.11,0.1 0.11,0.11 0.13,0.11 0.13,0.11 0.13,0.12 0.15,0.13 0.15,0.13 0.16,0.14 0.17,0.14 0.17,0.15 0.19,0.16 0.2,0.16 0.21,0.17 0.22,0.18 0.23,0.19 0.25,0.2 0.25,0.21 0.27,0.21 c 0.74,0.6 3.35,2.69 4.36,3.66 2.13,2.09 3.46,3.87 3.46,4.29 0,0.41 -0.46,0.41 -0.6,0.41 -0.31,0 -0.42,-0.06 -0.59,-0.34 -1.08,-1.6 -1.81,-2.13 -2.64,-2.13 -0.42,0 -0.95,0.03 -2,1.05 -1.17,1.19 -1.94,1.42 -2.75,1.42 -2.78,0 -4.67,-3.03 -4.67,-4.06 0,-0.33 0.36,-0.42 0.59,-0.42 0.42,0 0.5,0.09 0.63,0.48 0.53,1.22 2.48,1.3 3.04,1.3 0.8,0 1.71,-0.22 2.19,-0.33 1.92,-0.41 2.16,-0.41 3.03,-0.41 -0.91,-0.95 -1.53,-1.57 -4.84,-4.22 -2.72,-2.15 -3.66,-3.03 -4.32,-3.73 -2.09,-2.05 -3.1,-3.58 -3.1,-3.91 0,-0.4 0.45,-0.4 0.59,-0.4 0.34,0 0.42,0.06 0.59,0.34 0.94,1.33 2.02,2.13 3.21,2.13 0.42,0 0.93,-0.03 1.87,-0.91 1.09,-1.05 1.78,-1.56 2.91,-1.56 3.72,0 6.06,4.22 6.06,5.39 0,0.42 -0.39,0.45 -0.59,0.45 -0.43,0 -0.5,-0.17 -0.63,-0.55 -0.67,-1.75 -2.72,-2.57 -4.44,-2.57 -0.79,0 -1.67,0.17 -2.53,0.37 -1.61,0.35 -1.89,0.35 -2.51,0.35 -0.08,0 -0.6,0 -0.8,-0.04 z"
         inkscape:connector-curvature="0"
         style="fill:#000000;stroke-width:0" /></g>  </g>
  <g
     transform="translate(-120.14357,-112.40899)"
     id="g5556">
    <g
       style="font-style:normal;font-variant:normal;font-weight:normal;font-stretch:normal;letter-spacing:normal;word-spacing:normal;text-anchor:start;fill:none;fill-opacity:1;fill-rule:evenodd;stroke:#000000;stroke-linecap:butt;stroke-linejoin:miter;stroke-miterlimit:10.43299961;stroke-dasharray:none;stroke-dashoffset:0;stroke-opacity:1"
       id="g5558"
       transform="matrix(1.0629921,0,0,-1.0629921,-186.02362,789.27165)"
       xml:space="preserve"
       stroke-miterlimit="10.433"
       font-style="normal"
       font-variant="normal"
       font-weight="normal"
       font-stretch="normal"
       font-size-adjust="none"
       letter-spacing="normal"
       word-spacing="normal"><path
         style="fill:#000000;stroke-width:0"
         inkscape:connector-curvature="0"
         d="m 479.81,451.53 -1.29,1.25 c -1.49,-1.71 -3.24,-1.71 -3.79,-1.71 -1,0 -1.84,0.16 -3.98,0.86 -2.3,0.74 -3.23,0.85 -3.94,0.85 -0.89,0 -2.25,-0.21 -3.59,-1.55 -0.55,-0.55 -1.89,-2.05 -2.44,-2.59 l 1.3,-1.24 c 1.5,1.69 3.23,1.69 3.78,1.69 1,0 1.84,-0.16 3.98,-0.84 2.3,-0.75 3.25,-0.85 3.94,-0.85 0.91,0 2.25,0.19 3.6,1.53 0.54,0.55 1.89,2.05 2.43,2.6 z"
         id="path5560" /><path
         style="fill:#000000;stroke-width:0"
         inkscape:connector-curvature="0"
         d="m 477.74,438.03 4.03,0 0,2.34 c -1.73,-0.14 -5.97,-0.14 -7.92,-0.14 -2.64,0 -7.52,0 -9.91,0.14 l 0,-2.34 7.02,0 0,-24.41 c 0,-0.94 0,-6.17 -4.92,-6.17 -0.85,0 -2.5,0.14 -3.99,0.8 l 0,0.04 c 0,0 2.24,0.96 2.24,3.58 0,2.7 -2.15,3.84 -3.79,3.84 -1.84,0 -3.84,-1.25 -3.84,-3.84 0,-3.83 3.94,-6.22 9.63,-6.22 6.67,0 11.45,2.85 11.45,8.02 z"
         id="path5562" /><path
         style="fill:#000000;stroke-width:0"
         inkscape:connector-curvature="0"
         d="m 499.89,404.4 -0.01,-0.06 -0.02,-0.07 -0.02,-0.08 -0.02,-0.07 -0.01,-0.08 -0.02,-0.08 -0.02,-0.08 -0.02,-0.08 -0.05,-0.17 -0.04,-0.17 -0.04,-0.17 -0.02,-0.08 -0.02,-0.08 -0.02,-0.08 -0.02,-0.07 -0.02,-0.07 -0.02,-0.07 -0.02,-0.07 -0.01,-0.06 -0.02,-0.06 -0.01,-0.06 -0.02,-0.05 -0.01,-0.04 -0.02,-0.04 -0.01,-0.04 0,-0.01 -0.01,-0.01 0,-0.01 -0.01,-0.01 0,-0.01 -0.01,-0.01 0,0 0,0 c -0.67,-1.08 -2.06,-2.97 -4.22,-2.97 -2.41,0 -2.41,2.26 -2.41,2.89 0,2.06 0.97,4.53 1.96,7.08 0.28,0.7 0.48,1.21 0.48,1.78 0,1.81 -1.53,2.98 -3.31,2.98 -3.49,0 -5.05,-4.76 -5.05,-5.33 0,-0.45 0.49,-0.45 0.59,-0.45 0.49,0 0.52,0.17 0.63,0.56 0.83,2.86 2.37,4.25 3.72,4.25 0.59,0 0.87,-0.39 0.87,-1.22 0,-0.79 -0.28,-1.53 -0.62,-2.32 -1.88,-4.82 -1.88,-5.83 -1.88,-6.77 0,-0.59 0,-2.2 1.28,-3.31 1.02,-0.83 2.38,-1.11 3.6,-1.11 2.19,0 3.37,1.19 4.53,2.29 0.77,-2.23 3.09,-2.29 3.52,-2.29 1.18,0 2.09,0.69 2.75,1.84 0.76,1.36 1.25,3.38 1.25,3.49 0,0.45 -0.49,0.45 -0.58,0.45 -0.5,0 -0.53,-0.14 -0.78,-1.08 -0.41,-1.64 -1.08,-3.73 -2.54,-3.73 -0.9,0 -1.15,0.79 -1.15,1.7 0,0.59 0.28,1.86 0.53,2.77 0.23,0.93 0.58,2.35 0.77,3.12 l 0.79,3.11 c 0.21,0.87 0.6,2.41 0.6,2.58 0,0.69 -0.57,1.11 -1.16,1.11 -1.28,0 -1.53,-1.02 -1.81,-2.13 z"
         id="path5564" /></g>  </g>
  <g
     id="g5715"
     transform="translate(-134.28571,262.85714)">
    <g
       word-spacing="normal"
       letter-spacing="normal"
       font-size-adjust="none"
       font-stretch="normal"
       font-weight="normal"
       font-variant="normal"
       font-style="normal"
       stroke-miterlimit="10.433"
       xml:space="preserve"
       transform="matrix(1.0629921,0,0,-1.0629921,-186.02362,789.27165)"
       id="g5717"
       style="font-style:normal;font-variant:normal;font-weight:normal;font-stretch:normal;letter-spacing:normal;word-spacing:normal;text-anchor:start;fill:none;fill-opacity:1;fill-rule:evenodd;stroke:#000000;stroke-linecap:butt;stroke-linejoin:miter;stroke-miterlimit:10.43299961;stroke-dasharray:none;stroke-dashoffset:0;stroke-opacity:1"><path
         id="path5719"
         d="m 479.81,451.53 -1.29,1.25 c -1.49,-1.71 -3.24,-1.71 -3.79,-1.71 -1,0 -1.84,0.16 -3.98,0.86 -2.3,0.74 -3.23,0.85 -3.94,0.85 -0.89,0 -2.25,-0.21 -3.59,-1.55 -0.55,-0.55 -1.89,-2.05 -2.44,-2.59 l 1.3,-1.24 c 1.5,1.69 3.23,1.69 3.78,1.69 1,0 1.84,-0.16 3.98,-0.84 2.3,-0.75 3.25,-0.85 3.94,-0.85 0.91,0 2.25,0.19 3.6,1.53 0.54,0.55 1.89,2.05 2.43,2.6 z"
         inkscape:connector-curvature="0"
         style="fill:#000000;stroke-width:0" /><path
         id="path5721"
         d="m 477.74,438.03 4.03,0 0,2.34 c -1.73,-0.14 -5.97,-0.14 -7.92,-0.14 -2.64,0 -7.52,0 -9.91,0.14 l 0,-2.34 7.02,0 0,-24.41 c 0,-0.94 0,-6.17 -4.92,-6.17 -0.85,0 -2.5,0.14 -3.99,0.8 l 0,0.04 c 0,0 2.24,0.96 2.24,3.58 0,2.7 -2.15,3.84 -3.79,3.84 -1.84,0 -3.84,-1.25 -3.84,-3.84 0,-3.83 3.94,-6.22 9.63,-6.22 6.67,0 11.45,2.85 11.45,8.02 z"
         inkscape:connector-curvature="0"
         style="fill:#000000;stroke-width:0" /><path
         id="path5723"
         d="m 503.77,411.42 0,0.12 0,0.12 -0.01,0.12 -0.01,0.11 -0.01,0.11 -0.01,0.11 -0.01,0.1 -0.02,0.1 -0.02,0.1 -0.02,0.09 -0.02,0.09 -0.02,0.09 -0.03,0.08 -0.02,0.08 -0.03,0.07 -0.03,0.08 -0.03,0.07 -0.03,0.07 -0.03,0.06 -0.03,0.06 -0.04,0.06 -0.03,0.06 -0.04,0.05 -0.03,0.06 -0.04,0.05 -0.04,0.04 -0.08,0.09 -0.07,0.08 -0.08,0.07 -0.08,0.06 -0.08,0.05 -0.08,0.05 -0.08,0.04 -0.07,0.04 -0.08,0.02 -0.07,0.03 -0.06,0.02 -0.06,0.01 -0.06,0.02 -0.05,0 -0.04,0.01 -0.04,0 -0.03,0.01 -0.03,0 -0.01,0 c -0.91,0 -1.88,-0.96 -1.88,-1.86 0,-0.58 0.35,-0.86 0.6,-1.08 0.59,-0.48 1.28,-1.39 1.28,-2.78 0,-1.56 -2.3,-9.06 -6.44,-9.06 -2.83,0 -2.83,2.51 -2.83,3.11 0,1.59 0.63,3.54 1.93,6.78 0.28,0.73 0.48,1.26 0.48,1.86 0,1.81 -1.53,2.98 -3.31,2.98 -3.49,0 -5.05,-4.76 -5.05,-5.33 0,-0.45 0.49,-0.45 0.59,-0.45 0.49,0 0.52,0.17 0.63,0.56 0.83,2.86 2.33,4.25 3.72,4.25 0.59,0 0.87,-0.39 0.87,-1.22 0,-0.79 -0.28,-1.53 -0.62,-2.32 -1.5,-3.88 -1.88,-5.38 -1.88,-6.63 0,-3.45 2.72,-4.56 5.36,-4.56 5.86,0 8.3,10.14 8.3,13 z"
         inkscape:connector-curvature="0"
         style="fill:#000000;stroke-width:0" /></g>  </g>
  <g
     transform="translate(182.85714,160)"
     id="g5874">
    <g
       style="font-style:normal;font-variant:normal;font-weight:normal;font-stretch:normal;letter-spacing:normal;word-spacing:normal;text-anchor:start;fill:none;fill-opacity:1;fill-rule:evenodd;stroke:#000000;stroke-linecap:butt;stroke-linejoin:miter;stroke-miterlimit:10.43299961;stroke-dasharray:none;stroke-dashoffset:0;stroke-opacity:1"
       id="content"
       transform="matrix(1.0629921,0,0,-1.0629921,-186.02362,789.27165)"
       xml:space="preserve"
       stroke-miterlimit="10.433"
       font-style="normal"
       font-variant="normal"
       font-weight="normal"
       font-stretch="normal"
       font-size-adjust="none"
       letter-spacing="normal"
       word-spacing="normal"><path
         style="fill:#000000;stroke-width:0"
         inkscape:connector-curvature="0"
         d="m 492.29,451.53 -1.29,1.25 c -1.49,-1.71 -3.24,-1.71 -3.79,-1.71 -1,0 -1.84,0.16 -3.98,0.86 -2.3,0.74 -3.23,0.85 -3.94,0.85 -0.89,0 -2.25,-0.21 -3.59,-1.55 -0.55,-0.55 -1.89,-2.05 -2.44,-2.59 l 1.3,-1.24 c 1.5,1.69 3.23,1.69 3.78,1.69 1,0 1.84,-0.16 3.98,-0.84 2.3,-0.75 3.25,-0.85 3.94,-0.85 0.91,0 2.25,0.19 3.6,1.53 0.54,0.55 1.89,2.05 2.43,2.6 z"
         id="path5877" /><path
         style="fill:#000000;stroke-width:0"
         inkscape:connector-curvature="0"
         d="m 482.72,412.78 -11.95,26.36 c -0.55,1.23 -1.09,1.23 -2.2,1.23 l -11.05,0 0,-2.34 5.37,0 0,-28.05 c 0,-1.09 -0.04,-1.14 -1.45,-1.3 -1.19,-0.14 -1.28,-0.14 -2.69,-0.14 l -1.23,0 0,-2.34 c 1.89,0.16 4.72,0.16 6.67,0.16 2.1,0 4.69,0 6.72,-0.16 l 0,2.34 -1.23,0 c -0.91,0 -1.75,0.05 -2.64,0.14 -1.46,0.16 -1.5,0.21 -1.5,1.3 l 0,27.41 0.04,0 13.55,-29.94 c 0.45,-1 1.05,-1.25 1.59,-1.25 1,0 1.41,0.75 1.6,1.2 l 13.9,30.63 0.05,0 0,-29.49 -5.38,0 0,-2.34 c 1.8,0.16 6.43,0.16 8.47,0.16 2.05,0 6.72,0 8.52,-0.16 l 0,2.34 -5.38,0 0,29.49 5.38,0 0,2.34 -11,0 c -1.11,0 -1.66,0 -2.2,-1.23 z"
         id="path5879" /><path
         style="fill:#000000;stroke-width:0"
         inkscape:connector-curvature="0"
         d="m 528.49,411.42 0,0.12 -0.01,0.12 0,0.12 -0.01,0.11 -0.01,0.11 -0.01,0.11 -0.02,0.1 -0.01,0.1 -0.02,0.1 -0.02,0.09 -0.02,0.09 -0.02,0.09 -0.03,0.08 -0.02,0.08 -0.03,0.07 -0.03,0.08 -0.03,0.07 -0.03,0.07 -0.03,0.06 -0.04,0.06 -0.03,0.06 -0.03,0.06 -0.04,0.05 -0.04,0.06 -0.03,0.05 -0.04,0.04 -0.08,0.09 -0.08,0.08 -0.08,0.07 -0.08,0.06 -0.07,0.05 -0.08,0.05 -0.08,0.04 -0.07,0.04 -0.08,0.02 -0.07,0.03 -0.06,0.02 -0.06,0.01 -0.06,0.02 -0.05,0 -0.05,0.01 -0.03,0 -0.03,0.01 -0.03,0 -0.01,0 c -0.91,0 -1.88,-0.96 -1.88,-1.86 0,-0.58 0.35,-0.86 0.6,-1.08 0.59,-0.48 1.28,-1.39 1.28,-2.78 0,-1.56 -2.3,-9.06 -6.44,-9.06 -2.83,0 -2.83,2.51 -2.83,3.11 0,1.59 0.63,3.54 1.93,6.78 0.28,0.73 0.48,1.26 0.48,1.86 0,1.81 -1.53,2.98 -3.31,2.98 -3.49,0 -5.05,-4.76 -5.05,-5.33 0,-0.45 0.48,-0.45 0.59,-0.45 0.49,0 0.52,0.17 0.63,0.56 0.83,2.86 2.33,4.25 3.72,4.25 0.59,0 0.87,-0.39 0.87,-1.22 0,-0.79 -0.28,-1.53 -0.62,-2.32 -1.5,-3.88 -1.88,-5.38 -1.88,-6.63 0,-3.45 2.72,-4.56 5.36,-4.56 5.86,0 8.3,10.14 8.3,13 z"
         id="path5881" /></g>  </g>
  <g
     id="g6037"
     transform="translate(140,-208.57143)">
    <g
       word-spacing="normal"
       letter-spacing="normal"
       font-size-adjust="none"
       font-stretch="normal"
       font-weight="normal"
       font-variant="normal"
       font-style="normal"
       stroke-miterlimit="10.433"
       xml:space="preserve"
       transform="matrix(1.0629921,0,0,-1.0629921,-186.02362,789.27165)"
       id="g6039"
       style="font-style:normal;font-variant:normal;font-weight:normal;font-stretch:normal;letter-spacing:normal;word-spacing:normal;text-anchor:start;fill:none;fill-opacity:1;fill-rule:evenodd;stroke:#000000;stroke-linecap:butt;stroke-linejoin:miter;stroke-miterlimit:10.43299961;stroke-dasharray:none;stroke-dashoffset:0;stroke-opacity:1"><path
         id="path6041"
         d="m 492.29,451.53 -1.29,1.25 c -1.49,-1.71 -3.24,-1.71 -3.79,-1.71 -1,0 -1.84,0.16 -3.98,0.86 -2.3,0.74 -3.23,0.85 -3.94,0.85 -0.89,0 -2.25,-0.21 -3.59,-1.55 -0.55,-0.55 -1.89,-2.05 -2.44,-2.59 l 1.3,-1.24 c 1.5,1.69 3.23,1.69 3.78,1.69 1,0 1.84,-0.16 3.98,-0.84 2.3,-0.75 3.25,-0.85 3.94,-0.85 0.91,0 2.25,0.19 3.6,1.53 0.54,0.55 1.89,2.05 2.43,2.6 z"
         inkscape:connector-curvature="0"
         style="fill:#000000;stroke-width:0" /><path
         id="path6043"
         d="m 482.72,412.78 -11.95,26.36 c -0.55,1.23 -1.09,1.23 -2.2,1.23 l -11.05,0 0,-2.34 5.37,0 0,-28.05 c 0,-1.09 -0.04,-1.14 -1.45,-1.3 -1.19,-0.14 -1.28,-0.14 -2.69,-0.14 l -1.23,0 0,-2.34 c 1.89,0.16 4.72,0.16 6.67,0.16 2.1,0 4.69,0 6.72,-0.16 l 0,2.34 -1.23,0 c -0.91,0 -1.75,0.05 -2.64,0.14 -1.46,0.16 -1.5,0.21 -1.5,1.3 l 0,27.41 0.04,0 13.55,-29.94 c 0.45,-1 1.05,-1.25 1.59,-1.25 1,0 1.41,0.75 1.6,1.2 l 13.9,30.63 0.05,0 0,-29.49 -5.38,0 0,-2.34 c 1.8,0.16 6.43,0.16 8.47,0.16 2.05,0 6.72,0 8.52,-0.16 l 0,2.34 -5.38,0 0,29.49 5.38,0 0,2.34 -11,0 c -1.11,0 -1.66,0 -2.2,-1.23 z"
         inkscape:connector-curvature="0"
         style="fill:#000000;stroke-width:0" /><path
         id="path6045"
         d="m 524.61,404.4 -0.01,-0.06 -0.02,-0.07 -0.02,-0.08 -0.02,-0.07 -0.02,-0.08 -0.02,-0.08 -0.02,-0.08 -0.02,-0.08 -0.04,-0.17 -0.04,-0.17 -0.04,-0.17 -0.02,-0.08 -0.02,-0.08 -0.02,-0.08 -0.02,-0.07 -0.02,-0.07 -0.02,-0.07 -0.02,-0.07 -0.01,-0.06 -0.02,-0.06 -0.02,-0.06 -0.01,-0.05 -0.01,-0.04 -0.02,-0.04 -0.01,-0.04 0,-0.01 -0.01,-0.01 0,-0.01 -0.01,-0.01 0,-0.01 -0.01,-0.01 0,0 0,0 c -0.67,-1.08 -2.07,-2.97 -4.22,-2.97 -2.41,0 -2.41,2.26 -2.41,2.89 0,2.06 0.97,4.53 1.96,7.08 0.28,0.7 0.48,1.21 0.48,1.78 0,1.81 -1.53,2.98 -3.31,2.98 -3.49,0 -5.05,-4.76 -5.05,-5.33 0,-0.45 0.48,-0.45 0.59,-0.45 0.49,0 0.52,0.17 0.63,0.56 0.83,2.86 2.37,4.25 3.72,4.25 0.59,0 0.87,-0.39 0.87,-1.22 0,-0.79 -0.28,-1.53 -0.62,-2.32 -1.88,-4.82 -1.88,-5.83 -1.88,-6.77 0,-0.59 0,-2.2 1.28,-3.31 1.02,-0.83 2.38,-1.11 3.6,-1.11 2.19,0 3.37,1.19 4.53,2.29 0.76,-2.23 3.09,-2.29 3.51,-2.29 1.19,0 2.1,0.69 2.75,1.84 0.77,1.36 1.25,3.38 1.25,3.49 0,0.45 -0.48,0.45 -0.57,0.45 -0.5,0 -0.53,-0.14 -0.78,-1.08 -0.41,-1.64 -1.08,-3.73 -2.54,-3.73 -0.9,0 -1.15,0.79 -1.15,1.7 0,0.59 0.28,1.86 0.53,2.77 0.23,0.93 0.58,2.35 0.76,3.12 l 0.8,3.11 c 0.2,0.87 0.6,2.41 0.6,2.58 0,0.69 -0.57,1.11 -1.16,1.11 -1.28,0 -1.53,-1.02 -1.81,-2.13 z"
         inkscape:connector-curvature="0"
         style="fill:#000000;stroke-width:0" /></g>  </g>
</svg>
